<svg width="51" height="44" viewBox="0 0 51 44" fill="none" xmlns="http://www.w3.org/2000/svg">
	
<style>
.cls-1 {
	fill-rule: evenodd;
	clip-rule: evenodd;
	fill: #3d9b14;
}
</style>
<path class="cls-1" d="M43.6737 13.8045H26.3629L26.3045 7.765C26.3045 7.24732 25.9597 6.90221 25.4424 6.90221H8.30128V3.8825V0.862789C8.30128 0.345115 7.95686 0 7.43919 0H1.36389C0.84661 0 0.501892 0.345115 0.501892 0.862789V42.2766C0.501892 42.7943 0.84661 43.1394 1.36389 43.1394H49.6379C50.1548 43.1394 50.5 42.7943 50.5 42.2766C50.5 42.2766 50.5 22.2932 50.5 21.5C50.5 20.7068 49.7067 20.7068 49.7067 20.7068L44.536 20.6672V14.6674C44.5359 14.1497 44.191 13.8045 43.6737 13.8045ZM37.5693 34.5115H32.3971V29.3348H42.7416V34.5115H37.5693ZM25.5008 34.5115H20.3286V29.3348H30.6731V34.5115H25.5008ZM13.4323 34.5115H8.26023V29.3348H18.6047V34.5115H13.4323ZM2.22588 34.5115V29.3348H6.53614V34.5115H2.22588ZM7.39814 8.62789H12.5704V13.8046H2.22588V8.62789H7.39814ZM25.5009 15.5301H30.6732V20.7068H20.3286V15.5301H25.5009ZM43.6035 22.4324H48.7758V27.6091H38.4313V22.4324H43.6035ZM36.7074 27.6091H26.3629V22.4324H36.7073L36.7074 27.6091ZM19.4666 27.6091H14.2944V22.4324H24.6388V27.6091H19.4666ZM7.39824 27.6091H2.22588V22.4324H12.5704V27.6091H7.39824ZM2.22588 15.5301H6.53614V20.7068H2.22588V15.5301ZM18.6045 20.7068H8.26023V15.5301H18.6047L18.6045 20.7068ZM44.4655 29.3347H48.7757V34.5115H44.4655V29.3347ZM42.7415 20.7068H32.397V15.5301H42.7415V20.7068ZM24.6388 13.8045H14.2944V8.62789H24.6388V13.8045ZM2.22588 1.72558H6.53614V6.90231H2.22588V1.72558ZM2.22588 36.2371H12.5704V41.4139H2.22588V36.2371ZM14.2944 36.2371H24.6388V41.4139H14.2944V36.2371ZM26.3629 36.2371H36.7073V41.4139H26.3629V36.2371ZM48.7757 41.4139H38.4314V36.2371H48.7758L48.7757 41.4139Z"/>
</svg>






