<svg width="50" height="37" viewBox="0 0 50 37" fill="none" xmlns="http://www.w3.org/2000/svg">
	<style>
	.cls-1 {
		fill-rule: evenodd;
		clip-rule: evenodd;
		fill: #3d9b14;
	}
  </style>
	<path class="cls-1" d="M49.1358 13.8045H43.5326H37.9294V7.765C37.9294 7.24733 37.5846 6.90221 37.0673 6.90221H19.8267V0.862789C19.8267 0.345115 19.4819 0 18.9646 0H0.861993C0.344718 0 0 0.345115 0 0.862789V35.3187C0 35.8363 0.344718 36.1815 0.861993 36.1815H49.136C49.6529 36.1815 49.9981 35.8363 49.9981 35.3187V14.6674C49.998 14.1497 49.6531 13.8045 49.1358 13.8045ZM37.0674 27.5536H31.8952V22.3768H42.2397V27.5536H37.0674ZM24.9989 27.5536H19.8267V22.3768H30.1712V27.5536H24.9989ZM12.9304 27.5536H7.75834V22.3768H18.1029V27.5536H12.9304ZM1.72399 27.5536V22.3768H6.03425V27.5536H1.72399ZM6.89625 8.62789H12.0685V13.8046H1.72399V8.62789H6.89625ZM43.1017 15.4744H45.6878H48.2739V20.6512H37.9294V15.4744H43.1017ZM36.2055 20.6512H25.861V15.4744H31.0332H36.2054L36.2055 20.6512ZM18.9647 20.6512H13.7925V15.4744H24.1369V20.6512H18.9647ZM6.89634 20.6512H1.72399V15.4744H12.0685V20.6512H6.89634ZM43.9637 22.3767H48.2739V27.5536H43.9636L43.9637 22.3767ZM36.2055 13.8045H25.861V8.62789H36.2054L36.2055 13.8045ZM24.137 13.8045H13.7925V8.62789H24.1369L24.137 13.8045ZM18.1027 6.90231H7.75834V1.72558H18.1029L18.1027 6.90231ZM1.72399 1.72558H6.03425V6.90231H1.72399V1.72558ZM1.72399 29.2792H12.0685V34.4559H1.72399V29.2792ZM13.7925 29.2792H24.1369V34.4559H13.7925V29.2792ZM25.861 29.2792H36.2054V34.4559H25.861V29.2792ZM48.2738 34.4559H37.9295V29.2792H48.2739L48.2738 34.4559Z"/>
</svg>
